<svg version="1" xmlns="http://www.w3.org/2000/svg" width="1389.333" height="1389.333" viewBox="0 0 1042.000000 1042.000000"><path d="M486.5 9.6c-56.1 4.3-106.4 15.7-156 35.1-18.7 7.3-54.6 25.1-72.5 35.8C140.6 151 56.5 264.2 24 395.5c-5.7 23.2-9.1 41.7-12.2 67-1.9 15.6-2.2 23.1-2.2 56.5-.1 40.3.7 51.1 5.5 81C38.3 744.8 122 871.9 246 950.8c150.5 95.6 342 105.3 501.8 25.3 98.9-49.5 178.8-129.4 228.3-228.3C1002 696 1018.8 640.5 1026 583c24.2-193.7-63.1-383-226.1-490.3-59.8-39.4-124.6-64.8-196.6-77.2-25.2-4.3-42.3-5.6-77.3-5.9-19-.2-36.7-.2-39.5 0zm64.7 14.5c86.6 5.9 167.9 33 239.3 79.7 62.1 40.6 115.4 95.8 153.9 159.5 67.3 111.4 88 245.5 57.5 371.7-18.4 76.2-52.1 143.1-103 204-13.3 16-43.9 46.6-59.9 59.9-33 27.6-67.3 49.8-104.5 67.7-85.5 41.1-181.8 57-275.2 45.4-135.6-16.8-257.1-87.6-338.9-197.5-65.3-87.8-99.9-197.3-97-306.5.6-25.6 1.5-36.8 4.7-59C55.4 256.9 193.6 97.6 380.2 43c36-10.5 69.8-16.3 112.8-19.3 11.3-.8 44.3-.6 58.2.4z"/><path d="M490 221.6c-26.5 2.2-43.1 4.9-62.9 9.9-71.3 18-137.8 60.7-187.8 120.5-13.7 16.5-14.7 19.4-9 25.7 2.9 3.1 4.1 3.7 8.9 4.1 3.1.2 6.4-.1 7.6-.7 1.2-.6 5.9-5.7 10.4-11.4 16.1-19.9 39.9-42.8 60.3-58.1 46.2-34.7 96.9-55.3 155-63.2 17.4-2.3 52.1-2.4 69.8 0 60.6 7.9 115.8 31.3 163.2 69.3 15 11.9 37.5 34.2 50.2 49.4 5.7 7 11.6 13.2 12.9 13.8 8.5 3.8 19.3-1.7 19.4-10 .1-8.3-37.1-48.7-66.2-72-53.7-42.9-114-68.4-179.8-75.8-10.1-1.2-44.5-2.2-52-1.5z"/><path d="M501.5 312.7c-36.7 2-64.9 9.4-96.5 25.4-30.1 15.2-59.5 39-80.3 64.9-6.2 7.8-6.7 8.8-6.7 13.3 0 4.2.5 5.4 3.3 8.2 6.9 6.9 11.8 6 20.7-3.8 13.9-15.4 35-35.5 44.1-42 57.6-41.5 126.9-51.8 190.5-28.2 35.9 13.3 65.2 34.3 92.7 66.3 9.6 11.1 13.2 13.3 18.9 11.3 7.3-2.6 11.1-10.1 8.4-16.3-.8-1.8-6-8.6-11.5-15-40.4-46.7-97.7-77.2-155.1-82.7-13.9-1.3-22.4-1.7-28.5-1.4z"/><path d="M493.5 399.1c-29.7 4-55.8 17.6-77 40.1-9.7 10.3-11.6 14.3-9.6 20.7 1.6 5.4 7.1 10.1 11.8 10.1 3.3 0 4.5-1 14-11 15.5-16.2 26.9-24.1 43.8-30 22.7-7.9 45.8-7.1 68.5 2.4 12.7 5.4 21.5 11.8 35.3 25.7 10.8 11 13.2 12.9 15.8 12.9 4.3 0 8.3-2.6 10.8-7 4.6-8.3 2-14-13.1-28.6-23.3-22.6-51.2-34.6-82.8-35.9-5.8-.2-13.6 0-17.5.6zM712.4 547.4c-4.3 1.9-7.4 6.2-7.4 10.2v3.4H299v-2c0-3.8-2.8-8.9-5.9-10.4-1.6-.9-5.1-1.6-7.7-1.6-3.9 0-5.1.5-8 3.4l-3.4 3.4v33.5c0 38.3 1 48.9 6.6 71.7 11.7 47.2 36.6 90.6 71.5 124.5 34.2 33.1 73.5 53.6 118.4 61.6 17 3 51.2 3.3 67 .6 23.6-4.2 40.3-9.6 62-20.2 33.8-16.4 63.6-40.9 85.9-70.5 4.8-6.4 8.6-10.4 9.5-10.3.9.1 4.8 1 8.6 1.9 17.4 4 52.6-2 76-13.2 15.4-7.2 29-18.1 36.5-28.9 4.3-6.2 10.5-19.6 12.5-27 2.5-9.3 3-26.5 1.1-35.5-3.8-17.8-15.5-32.9-31.7-40.9-12.6-6.2-19-7.5-34.9-7.4-13.1.1-15.7.5-30.7 4.9l-2.3.6v-21.3c0-24.1-.6-26.8-7.1-30.1-4-2.1-6.3-2.2-10.5-.4zm64.3 72c8.4 2.2 14.2 5.7 19.9 11.9 9.1 9.8 11.7 23.9 7.3 39.7-6.9 24.9-24.4 38.8-60.9 48.2-9.1 2.4-13.9 3-22.7 3.1-6.8.1-11.6-.2-12.3-.9-.7-.7-.1-3 2.1-8 10.2-22.3 17-49.8 19.5-78.6l.7-7.6 5.6-2.5c5.5-2.5 14.1-5.2 19.1-6 5.7-1 16.8-.6 21.7.7z"/></svg>